<svg width="16" height="16" viewBox="0 0 16 16" fill="none" xmlns="http://www.w3.org/2000/svg">
<path d="M15.0594 1.96875L1.9692 15.059C1.83274 15.1954 1.64767 15.2721 1.45468 15.2721C1.2617 15.2721 1.07662 15.1954 0.940164 15.059C0.803705 14.9225 0.727044 14.7374 0.727044 14.5445C0.727044 14.3515 0.803705 14.1664 0.940164 14.0299L14.0304 0.93971C14.1667 0.803251 14.3517 0.726541 14.5446 0.726456C14.7375 0.726371 14.9225 0.802917 15.059 0.939255C15.1954 1.07559 15.2721 1.26056 15.2722 1.45345C15.2723 1.64635 15.1958 1.83138 15.0594 1.96784V1.96875ZM0.958345 5.58674C0.344642 4.97292 -8.52236e-05 4.14044 1.58039e-08 3.27245C8.52552e-05 2.40446 0.344976 1.57205 0.9588 0.958345C1.57262 0.344642 2.4051 -8.52236e-05 3.27309 1.58039e-08C4.14109 8.52552e-05 4.97349 0.344976 5.5872 0.9588C6.2009 1.57262 6.54563 2.4051 6.54554 3.27309C6.54546 4.14109 6.20057 4.97349 5.58674 5.5872C4.97292 6.2009 4.14044 6.54563 3.27245 6.54554C2.40446 6.54546 1.57205 6.20057 0.958345 5.58674ZM1.45468 3.27413C1.45492 3.57307 1.52886 3.86734 1.66997 4.13088C1.81107 4.39442 2.01498 4.6191 2.26364 4.78502C2.51231 4.95095 2.79804 5.053 3.09556 5.08213C3.39307 5.11127 3.69318 5.0666 3.96931 4.95207C4.24544 4.83754 4.48907 4.6567 4.67862 4.42554C4.86817 4.19438 4.9978 3.92005 5.05603 3.62684C5.11426 3.33363 5.09929 3.03059 5.01245 2.74454C4.92561 2.4585 4.76957 2.19828 4.55816 1.98693C4.30379 1.73263 3.9797 1.5595 3.62691 1.48944C3.27412 1.41938 2.90847 1.45554 2.57623 1.59334C2.24399 1.73114 1.96009 1.96439 1.76045 2.26358C1.56081 2.56277 1.4544 2.91445 1.45468 3.27413ZM15.9994 12.7282C15.9992 13.4853 15.7365 14.2189 15.2561 14.8041C14.7757 15.3892 14.1072 15.7897 13.3646 15.9373C12.622 16.0848 11.8512 15.9703 11.1836 15.6133C10.5159 15.2562 9.99273 14.6787 9.70313 13.9792C9.41354 13.2797 9.37545 12.5013 9.59536 11.7769C9.81528 11.0524 10.2796 10.4266 10.9092 10.0061C11.5388 9.58556 12.2947 9.39635 13.0482 9.47069C13.8016 9.54503 14.506 9.87832 15.0413 10.4138C15.3461 10.717 15.5877 11.0777 15.7522 11.475C15.9167 11.8723 16.0007 12.2982 15.9994 12.7282ZM14.5449 12.7282C14.545 12.3076 14.3992 11.8999 14.1325 11.5747C13.8657 11.2495 13.4944 11.0269 13.0819 10.9447C12.6693 10.8626 12.2411 10.926 11.8701 11.1242C11.4991 11.3224 11.2083 11.6432 11.0473 12.0317C10.8862 12.4203 10.8649 12.8527 10.9869 13.2553C11.109 13.6578 11.3668 14.0056 11.7165 14.2393C12.0662 14.4731 12.4861 14.5783 12.9047 14.5372C13.3234 14.496 13.7147 14.311 14.0122 14.0136C14.1816 13.8452 14.3159 13.6449 14.4073 13.4242C14.4987 13.2036 14.5455 12.967 14.5449 12.7282Z" fill="#999999"/>
</svg>
